# xmcd
#
# Track frame offsets:
#	150
#	16172
#	32389
#	51413
#	72248
#	87483
#	105472
#	119335
#	136945
#	154076
#
# Disc length: 2236 seconds
# Revision: 0
# Processed by: cddbd v1.5.2PL0 Copyright (c) Steve Scherf et al.
# Submitted via: dBpowerAMP V12.0
#
DISCID=7b08ba0a
DTITLE=Various Artist - Sax In The Country
DYEAR=2005
DGENRE=Country
TTITLE0=Jerry D - Saxy 2 Step
TTITLE1=Jerry D and Deborah Allen - Baby I Lied
TTITLE2=Jerry D - Lady
TTITLE3=Jerry D - My Texas Woman
TTITLE4=Jerry D and Dolly Parton - I Will Always Love You
TTITLE5=Jerry D - More Than Words Can Say
TTITLE6=Jerry D - You Are So Beautiful
TTITLE7=Jerry D - Sax-N-Boogie
TTITLE8=Jerry D - Last Dance
TTITLE9=Jerry D - Sax In The Country
EXTD=
EXTT0=
EXTT1=
EXTT2=
EXTT3=
EXTT4=
EXTT5=
EXTT6=
EXTT7=
EXTT8=
EXTT9=
PLAYORDER=
